<svg width="13" height="14" viewBox="0 0 13 14" fill="none" xmlns="http://www.w3.org/2000/svg">
<g id="Group 771">
<path id="Rectangle" d="M4.96584 1H1.02088C0.733206 1 0.5 1.23321 0.5 1.52088V5.46584C0.5 5.75352 0.733206 5.98672 1.02088 5.98672H4.96584C5.25352 5.98672 5.48672 5.75352 5.48672 5.46584V1.52088C5.48672 1.23321 5.25352 1 4.96584 1Z" fill="white" stroke="white"/>
<path id="Rectangle_2" d="M4.96584 8.01328H1.02088C0.733206 8.01328 0.5 8.24648 0.5 8.53416V12.4791C0.5 12.7668 0.733206 13 1.02088 13H4.96584C5.25352 13 5.48672 12.7668 5.48672 12.4791V8.53416C5.48672 8.24648 5.25352 8.01328 4.96584 8.01328Z" fill="white" stroke="white"/>
<path id="Rectangle_3" d="M11.9791 1H8.03419C7.74651 1 7.51331 1.23321 7.51331 1.52088V5.46584C7.51331 5.75352 7.74651 5.98672 8.03419 5.98672H11.9791C12.2668 5.98672 12.5 5.75352 12.5 5.46584V1.52088C12.5 1.23321 12.2668 1 11.9791 1Z" fill="white" stroke="white"/>
<path id="Rectangle_4" d="M11.9791 8.01328H8.03419C7.74651 8.01328 7.51331 8.24648 7.51331 8.53416V12.4791C7.51331 12.7668 7.74651 13 8.03419 13H11.9791C12.2668 13 12.5 12.7668 12.5 12.4791V8.53416C12.5 8.24648 12.2668 8.01328 11.9791 8.01328Z" fill="white" stroke="white"/>
</g>
</svg>
