<svg width="24" height="24" viewBox="0 0 24 24" fill="none" xmlns="http://www.w3.org/2000/svg">
<g id="icons/24*24/ic_messages">
<path id="Rectangle Copy 12" fill-rule="evenodd" clip-rule="evenodd" d="M14.2662 12.6334C14.3354 11.7667 13.6507 11.0251 12.7812 11.0251H5.32861C4.46036 11.0251 3.77609 11.7646 3.84337 12.6303L4.24245 17.7646C4.33025 18.8942 5.64987 19.4612 6.52971 18.7473C6.78139 18.5431 7.09589 18.4321 7.41999 18.4332L12.4215 18.4494C13.2001 18.4519 13.8493 17.8544 13.9113 17.0782L14.2662 12.6334Z" fill="#BFBFBF"/>
<path id="Rectangle Copy 10" fill-rule="evenodd" clip-rule="evenodd" d="M6.29115 7.18413C6.22193 6.31739 6.90664 5.57584 7.77613 5.57584H17.9078C18.7761 5.57584 19.4604 6.31536 19.3931 7.18099L18.8229 14.5171C18.7298 15.7142 17.3314 16.315 16.399 15.5585L15.9269 15.1755C15.6602 14.9591 15.3269 14.8415 14.9835 14.8426L8.28474 14.8643C7.50613 14.8668 6.85691 14.2693 6.79493 13.4932L6.29115 7.18413Z" fill="#7F7F7F"/>
<path id="Path" d="M21.9998 6.00007C21.9998 8.20922 20.209 10 17.9997 10C15.7905 10 13.9998 8.20922 13.9998 6.00007C13.9998 3.79093 15.7905 2 17.9997 2C20.209 2 21.9998 3.79093 21.9998 6.00007Z" fill="#FD5250" stroke="white"/>
</g>
</svg>
