<svg width="24" height="24" viewBox="0 0 24 24" fill="none" xmlns="http://www.w3.org/2000/svg">
<g id="icons/24*24/ic_notification">
<path id="Union" fill-rule="evenodd" clip-rule="evenodd" d="M15.3187 4.03001C16.4717 4.91002 17.3611 6.3497 17.5577 10.799C17.5578 10.8008 17.5603 10.8 17.563 10.7992C17.5645 10.7988 17.5661 10.7983 17.5672 10.7983C17.6136 12.2872 18.2755 13.697 19.4199 14.6563C19.8142 14.9876 19.9952 15.4953 19.8897 16.0038C19.7537 16.6609 19.1216 17.0954 18.4511 17.0954H5.64188C5.00274 17.0954 4.39357 16.7019 4.22669 16.0856C4.08344 15.5559 4.26056 15.0128 4.65961 14.672C5.85675 13.6599 6.53912 12.1897 6.53912 10.6321V8.43785C6.53912 5.39505 9.00576 2.92856 12.0484 2.92856C12.2262 2.92856 12.575 2.95522 12.575 2.95522C12.575 2.95522 14.1657 3.15 15.3187 4.03001ZM14.9402 17.8825C14.6664 19.2275 13.474 20.2436 12.0486 20.2436C10.6233 20.2436 9.43094 19.2275 9.15698 17.8825H14.9402Z" fill="#7F7F7F"/>
<path id="Path" d="M20 6.00007C20 8.20922 18.2092 10 15.9999 10C13.7908 10 12 8.20922 12 6.00007C12 3.79093 13.7908 2 15.9999 2C18.2092 2 20 3.79093 20 6.00007Z" fill="#FD5250" stroke="white" stroke-width="1.5"/>
</g>
</svg>
