<svg width="16" height="16" viewBox="0 0 16 16" fill="none" xmlns="http://www.w3.org/2000/svg">
<g id="icons/16*16/ic_search">
<path id="Union" fill-rule="evenodd" clip-rule="evenodd" d="M3.72167 7.46473C3.72167 5.40912 5.38807 3.74273 7.44367 3.74273C9.49928 3.74273 11.1657 5.40912 11.1657 7.46473C11.1657 9.52034 9.49928 11.1867 7.44367 11.1867C5.38807 11.1867 3.72167 9.52034 3.72167 7.46473ZM7.44367 2.68414C4.80343 2.68414 2.66309 4.82449 2.66309 7.46473C2.66309 10.105 4.80343 12.2453 7.44367 12.2453C8.58638 12.2453 9.63545 11.8444 10.4579 11.1755L12.4324 13.1599C12.6386 13.3671 12.9737 13.368 13.181 13.1618C13.3882 12.9556 13.389 12.6205 13.1828 12.4132L11.2007 10.4212C11.8418 9.60769 12.2243 8.58088 12.2243 7.46473C12.2243 4.82449 10.0839 2.68414 7.44367 2.68414Z" fill="#7F7F7F"/>
</g>
</svg>
